Normalized EMG Linear Envelopes
nRows=125
nColumns=4

endheader
time	 med_gas_r	  soleus_r	 tib_ant_r	
3.0625	  0.007242	  0.020350	  0.003294	
3.125	  0.008299	  0.020195	  0.004133	
3.1875	  0.008938	  0.019897	  0.004702	
3.25	  0.009075	  0.019471	  0.004940	
3.3125	  0.008897	  0.019070	  0.005023	
3.375	  0.008647	  0.018905	  0.005134	
3.4375	  0.008540	  0.019072	  0.005274	
3.5	  0.008744	  0.019495	  0.005322	
3.5625	  0.009271	  0.020133	  0.005188	
3.625	  0.009877	  0.020929	  0.004914	
3.6875	  0.010172	  0.021523	  0.004660	
3.75	  0.009908	  0.021453	  0.004576	
3.8125	  0.009207	  0.020567	  0.004671	
3.875	  0.008480	  0.019041	  0.004819	
3.9375	  0.008019	  0.017326	  0.004852	
4	  0.007794	  0.016035	  0.004680	
4.0625	  0.007719	  0.015670	  0.004385	
4.125	  0.007873	  0.016516	  0.004165	
4.1875	  0.008301	  0.018508	  0.004165	
4.25	  0.008750	  0.020793	  0.004347	
4.3125	  0.008825	  0.022006	  0.004557	
4.375	  0.008419	  0.021628	  0.004713	
4.4375	  0.007898	  0.020523	  0.004836	
4.5	  0.007782	  0.019734	  0.004950	
4.5625	  0.008219	  0.019398	  0.005025	
4.625	  0.008787	  0.018932	  0.004995	
4.6875	  0.008886	  0.017757	  0.004770	
4.75	  0.008314	  0.015791	  0.004319	
4.8125	  0.007457	  0.013683	  0.003883	
4.875	  0.007108	  0.013371	  0.004269	
4.9375	  0.008293	  0.019060	  0.007017	
5	  0.011976	  0.036954	  0.013754	
5.0625	  0.018237	  0.071194	  0.024220	
5.125	  0.025704	  0.117609	  0.035131	
5.1875	  0.032678	  0.164189	  0.042777	
5.25	  0.039040	  0.203063	  0.046734	
5.3125	  0.046423	  0.240405	  0.049560	
5.375	  0.056469	  0.287470	  0.053480	
5.4375	  0.069063	  0.342040	  0.058596	
5.5	  0.082070	  0.386830	  0.063308	
5.5625	  0.092894	  0.408200	  0.065701	
5.625	  0.099840	  0.408994	  0.065599	
5.6875	  0.102262	  0.401570	  0.065512	
5.75	  0.101341	  0.397906	  0.068384	
5.8125	  0.100212	  0.406830	  0.074652	
5.875	  0.101336	  0.428918	  0.082412	
5.9375	  0.105264	  0.454825	  0.089695	
6	  0.112901	  0.475847	  0.095727	
6.0625	  0.125771	  0.490234	  0.100603	
6.125	  0.143093	  0.499148	  0.104489	
6.1875	  0.161835	  0.506189	  0.107339	
6.25	  0.180220	  0.517109	  0.109268	
6.3125	  0.198293	  0.533447	  0.110883	
6.375	  0.214630	  0.550487	  0.113000	
6.4375	  0.225305	  0.559936	  0.115676	
6.5	  0.227755	  0.552083	  0.117623	
6.5625	  0.223323	  0.525165	  0.117456	
6.625	  0.213994	  0.493897	  0.115238	
6.6875	  0.200713	  0.476421	  0.112101	
6.75	  0.187612	  0.474332	  0.109722	
6.8125	  0.182548	  0.476243	  0.110278	
6.875	  0.190358	  0.476140	  0.114816	
6.9375	  0.207967	  0.477806	  0.121694	
7	  0.225462	  0.484823	  0.127217	
7.0625	  0.231761	  0.494130	  0.127551	
7.125	  0.222829	  0.497524	  0.121471	
7.1875	  0.204561	  0.487597	  0.111734	
7.25	  0.186645	  0.466268	  0.102646	
7.3125	  0.175016	  0.446318	  0.097240	
7.375	  0.168870	  0.440699	  0.096554	
7.4375	  0.162730	  0.451274	  0.099051	
7.5	  0.152813	  0.467076	  0.101213	
7.5625	  0.142479	  0.473160	  0.101015	
7.625	  0.139604	  0.463922	  0.099706	
7.6875	  0.148387	  0.446791	  0.098549	
7.75	  0.166129	  0.434182	  0.096624	
7.8125	  0.187772	  0.436410	  0.093763	
7.875	  0.210374	  0.458733	  0.092219	
7.9375	  0.231732	  0.496662	  0.093931	
8	  0.246606	  0.532390	  0.098318	
8.0625	  0.248809	  0.542789	  0.103011	
8.125	  0.239414	  0.518819	  0.105910	
8.1875	  0.229019	  0.476186	  0.106499	
8.25	  0.228058	  0.440339	  0.105347	
8.3125	  0.237687	  0.422695	  0.103365	
8.375	  0.251761	  0.416814	  0.101925	
8.4375	  0.262485	  0.411813	  0.102736	
8.5	  0.263156	  0.403132	  0.106783	
8.5625	  0.251799	  0.394004	  0.113366	
8.625	  0.234685	  0.390874	  0.120641	
8.6875	  0.224303	  0.398954	  0.126991	
8.75	  0.231392	  0.419328	  0.131459	
8.8125	  0.256427	  0.446450	  0.133649	
8.875	  0.288966	  0.472314	  0.134047	
8.9375	  0.316040	  0.493680	  0.134627	
9	  0.331295	  0.510382	  0.138298	
9.0625	  0.338001	  0.522231	  0.145891	
9.125	  0.343784	  0.533073	  0.153925	
9.1875	  0.352158	  0.548937	  0.157138	
9.25	  0.360516	  0.567828	  0.153326	
9.3125	  0.363350	  0.579095	  0.144906	
9.375	  0.354811	  0.575806	  0.135551	
9.4375	  0.333634	  0.562581	  0.126497	
9.5	  0.307018	  0.546642	  0.117410	
9.5625	  0.283824	  0.525322	  0.108926	
9.625	  0.264538	  0.489681	  0.101969	
9.6875	  0.241778	  0.435695	  0.095560	
9.75	  0.208583	  0.365992	  0.086904	
9.8125	  0.164065	  0.285242	  0.073692	
9.875	  0.113720	  0.199027	  0.056113	
9.9375	  0.066806	  0.117791	  0.037115	
10	  0.031757	  0.055741	  0.020806	
10.0625	  0.011638	  0.020393	  0.009943	
10.125	  0.003694	  0.007433	  0.004594	
10.1875	  0.002775	  0.007281	  0.002990	
10.25	  0.004523	  0.011985	  0.003116	
10.3125	  0.006501	  0.016853	  0.003640	
10.375	  0.007896	  0.020033	  0.004044	
10.4375	  0.008622	  0.021629	  0.004269	
10.5	  0.008739	  0.022391	  0.004353	
10.5625	  0.008472	  0.022903	  0.004329	
10.625	  0.008171	  0.023261	  0.004278	
10.6875	  0.008005	  0.022576	  0.004351	
10.75	  0.007915	  0.019471	  0.004685	
10.8125	  0.007828	  0.014075	  0.005250	
